<svg width="42" height="41" viewBox="0 0 42 41" fill="none" xmlns="http://www.w3.org/2000/svg">
<g filter="url(#filter0_d_160_153)">
<path d="M37.375 2.4375C37.75 2.8125 37.9375 3.3125 37.9375 3.875C37.9375 4.4375 37.75 4.9375 37.375 5.3125L34.5 8.1875C34.25 8.4375 33.9375 8.625 33.625 8.75L31.375 9.5L26.5625 14.25C27.125 15 27.5625 15.875 27.75 16.75C28.25 18.875 27.8125 20.9375 26.375 22.375C25.8125 22.9375 25.125 23.375 24.3125 23.625C23.125 24 22.25 25.0625 22.1875 26.25C22 27.75 21.4375 29.125 20.375 30.1875C17.5625 33 12.4375 32.5 8.9375 29.0625C5.5 25.5625 4.9375 20.4375 7.8125 17.625C8.875 16.5625 10.25 16 11.75 15.875C12.9375 15.75 14 14.875 14.375 13.6875C14.625 12.875 15.0625 12.1875 15.625 11.625C17.0625 10.1875 19.125 9.75 21.25 10.25C22.1875 10.4375 23 10.875 23.75 11.4375L28.5 6.625L29.25 4.375C29.375 4.0625 29.5625 3.75 29.8125 3.5L32.6875 0.625C33.0625 0.25 33.5625 0 34.125 0C34.6875 0 35.1875 0.25 35.5625 0.625L37.375 2.4375ZM19 22C20.625 22 22 20.6875 22 19C22 17.375 20.625 16 19 16C17.3125 16 16 17.375 16 19C16 20.6875 17.3125 22 19 22Z" fill="#2A7AE4"/>
</g>
<defs>
<filter id="filter0_d_160_153" x="0.9375" y="0" width="41" height="41" filterUnits="userSpaceOnUse" color-interpolation-filters="sRGB">
<feFlood flood-opacity="0" result="BackgroundImageFix"/>
<feColorMatrix in="SourceAlpha" type="matrix" values="0 0 0 0 0 0 0 0 0 0 0 0 0 0 0 0 0 0 127 0" result="hardAlpha"/>
<feOffset dy="4"/>
<feGaussianBlur stdDeviation="2"/>
<feComposite in2="hardAlpha" operator="out"/>
<feColorMatrix type="matrix" values="0 0 0 0 0 0 0 0 0 0 0 0 0 0 0 0 0 0 0.25 0"/>
<feBlend mode="normal" in2="BackgroundImageFix" result="effect1_dropShadow_160_153"/>
<feBlend mode="normal" in="SourceGraphic" in2="effect1_dropShadow_160_153" result="shape"/>
</filter>
</defs>
</svg>
