<?xml version="1.0" standalone="no"?>
<!DOCTYPE svg PUBLIC "-//W3C//DTD SVG 20010904//EN"
 "http://www.w3.org/TR/2001/REC-SVG-20010904/DTD/svg10.dtd">
<svg version="1.0" xmlns="http://www.w3.org/2000/svg"
 width="284.000000pt" height="177.000000pt" viewBox="0 0 284.000000 177.000000"
 preserveAspectRatio="xMidYMid meet">

<g transform="translate(0.000000,177.000000) scale(0.100000,-0.100000)"
fill="#000000" stroke="none">
<path d="M713 1420 c0 -30 2 -43 4 -27 2 15 2 39 0 55 -2 15 -4 2 -4 -28z"/>
<path d="M1980 1405 l0 -55 55 0 55 0 0 55 0 55 -55 0 -55 0 0 -55z"/>
<path d="M870 1415 c-7 -9 -11 -17 -9 -20 3 -2 10 5 17 15 14 24 10 26 -8 5z"/>
<path d="M2215 1386 c-17 -17 -25 -36 -25 -61 l0 -35 62 0 c127 0 188 -58 196
-186 l5 -74 37 0 c64 0 70 15 70 186 0 114 -3 155 -14 170 -13 17 -29 19 -160
22 -144 3 -146 3 -171 -22z"/>
<path d="M574 1170 c0 -85 2 -120 3 -77 2 42 2 112 0 155 -1 42 -3 7 -3 -78z"/>
<path d="M290 1150 c0 -80 4 -130 10 -130 6 0 10 50 10 130 0 80 -4 130 -10
130 -6 0 -10 -50 -10 -130z"/>
<path d="M1020 1256 c0 -13 -6 -27 -12 -29 -10 -4 -10 -6 0 -6 8 -1 12 -25 12
-84 0 -80 17 -134 36 -114 4 4 2 7 -4 7 -8 0 -12 29 -12 94 0 90 1 95 23 99
l22 4 -22 2 c-17 1 -23 7 -23 26 0 14 -4 25 -10 25 -5 0 -10 -11 -10 -24z"/>
<path d="M411 1221 c-10 -6 -1 -8 25 -4 63 8 74 -9 71 -112 -1 -47 1 -85 6
-85 4 0 7 40 7 88 0 73 -3 92 -18 105 -20 18 -68 22 -91 8z"/>
<path d="M660 1210 c-24 -24 -33 -56 -27 -101 3 -29 4 -27 5 12 2 59 32 99 72
99 31 0 60 -31 60 -64 0 -11 3 -17 6 -13 10 9 -4 54 -22 71 -21 22 -70 20 -94
-4z"/>
<path d="M838 1223 c-16 -4 -18 -18 -18 -104 0 -129 18 -130 22 -1 l3 97 39 3
c21 2 44 -2 50 -8 6 -6 14 -52 17 -103 l5 -92 2 91 c2 77 -1 93 -16 107 -18
16 -65 20 -104 10z"/>
<path d="M1142 1223 c-20 -8 -42 -59 -42 -98 0 -43 24 -105 41 -105 8 0 6 7
-5 19 -40 45 -27 165 19 177 56 14 85 -18 85 -93 0 -63 -14 -91 -52 -102 -24
-7 -27 -9 -11 -10 12 -1 34 10 50 23 25 21 28 31 28 84 0 50 -4 65 -24 86 -23
25 -57 32 -89 19z"/>
<path d="M1306 1217 c-32 -23 -17 -68 32 -95 46 -26 56 -57 26 -86 -8 -9 -11
-16 -6 -16 18 0 33 29 30 57 -2 21 -14 34 -45 51 -31 17 -43 30 -43 47 0 32
24 49 61 41 18 -3 28 -2 24 4 -9 14 -58 12 -79 -3z"/>
<path d="M1589 1090 c0 -25 0 -78 1 -117 1 -71 1 -73 -24 -73 -35 0 -56 25
-56 69 0 39 14 65 40 74 12 4 12 6 -2 6 -42 2 -64 -92 -32 -137 12 -18 24 -22
52 -20 l37 3 3 109 c2 66 -1 113 -8 120 -7 7 -10 -4 -11 -34z"/>
<path d="M390 1099 c-14 -26 -6 -65 16 -73 14 -5 15 -4 4 9 -8 9 -10 29 -7 50
7 40 3 44 -13 14z"/>
<path d="M640 1061 c0 -10 39 -46 43 -40 2 2 -7 14 -20 26 -13 12 -23 19 -23
14z"/>
<path d="M1654 1035 c-23 -23 -26 -32 -21 -73 3 -28 12 -51 23 -59 19 -14 84
-18 84 -5 0 4 -15 6 -33 4 -40 -4 -59 15 -63 61 -3 44 4 65 27 77 27 15 59 -4
59 -35 0 -14 5 -25 10 -25 6 0 10 4 10 10 0 15 -23 60 -31 60 -4 0 -14 3 -23
6 -9 3 -26 -5 -42 -21z"/>
<path d="M443 1013 c9 -2 25 -2 35 0 9 3 1 5 -18 5 -19 0 -27 -2 -17 -5z"/>
<path d="M708 1013 c6 -2 18 -2 25 0 6 3 1 5 -13 5 -14 0 -19 -2 -12 -5z"/>
<path d="M1318 1013 c7 -3 16 -2 19 1 4 3 -2 6 -13 5 -11 0 -14 -3 -6 -6z"/>
<path d="M685 946 c-44 -19 -57 -40 -64 -104 -5 -49 -9 -57 -28 -60 -35 -5
-32 -52 2 -52 l25 0 0 -170 0 -170 40 0 40 0 0 170 0 170 30 0 c25 0 30 4 30
25 0 21 -5 25 -30 25 -29 0 -30 2 -30 43 0 45 22 87 46 87 8 0 14 10 14 25 0
29 -25 33 -75 11z"/>
<path d="M237 903 c-4 -3 -7 -59 -7 -124 0 -145 -3 -142 146 -137 80 2 107 7
114 18 14 23 13 223 -2 238 -13 13 -239 18 -251 5z"/>
<path d="M1200 881 c-22 -6 -25 -13 -28 -54 -3 -52 0 -51 -114 -47 l-48 1 0
-160 c0 -148 -1 -161 -19 -171 -31 -16 -69 -12 -91 10 -18 18 -20 33 -20 170
l0 150 -45 0 -45 0 0 -140 c0 -152 13 -210 54 -233 11 -6 55 -14 96 -17 l75
-5 5 -113 c5 -109 6 -115 33 -138 l28 -24 270 0 271 0 29 29 c24 25 29 37 29
80 l0 51 -53 0 c-67 0 -133 32 -165 80 l-23 35 88 6 c48 3 96 9 106 13 15 7
17 26 17 192 l0 184 -40 0 -40 0 0 -165 0 -164 -34 -6 c-83 -16 -96 11 -96
195 l0 140 -90 0 -90 0 0 55 c0 59 -3 62 -60 46z"/>
<path d="M1760 777 l-45 -12 -3 -188 -2 -188 42 3 43 3 3 168 c3 181 0 173 60
168 12 -1 22 2 22 6 0 4 3 18 6 31 6 20 3 22 -37 21 -24 0 -64 -6 -89 -12z"/>
<path d="M1994 776 c-66 -29 -100 -108 -91 -213 8 -109 67 -173 159 -173 62 0
100 20 130 67 32 53 34 198 2 257 -35 68 -124 95 -200 62z m120 -69 c18 -24
21 -43 21 -116 0 -117 -28 -162 -90 -147 -42 11 -57 56 -53 163 3 86 5 97 27
114 32 26 69 21 95 -14z"/>
</g>
</svg>
