<svg width="36" height="35" viewBox="0 0 36 35" fill="none" xmlns="http://www.w3.org/2000/svg">
<g clip-path="url(#clip0_160_173)" filter="url(#filter0_d_160_173)">
<path d="M18 20.2667C20.3564 20.2667 22.2667 18.3565 22.2667 16.0001C22.2667 13.6436 20.3564 11.7334 18 11.7334C15.6436 11.7334 13.7334 13.6436 13.7334 16.0001C13.7334 18.3565 15.6436 20.2667 18 20.2667Z" fill="#2A7AE4"/>
<path d="M14 2.66663L11.56 5.33329H7.33334C5.86667 5.33329 4.66667 6.53329 4.66667 7.99996V24C4.66667 25.4666 5.86667 26.6666 7.33334 26.6666H28.6667C30.1333 26.6666 31.3333 25.4666 31.3333 24V7.99996C31.3333 6.53329 30.1333 5.33329 28.6667 5.33329H24.44L22 2.66663H14ZM18 22.6666C14.32 22.6666 11.3333 19.68 11.3333 16C11.3333 12.32 14.32 9.33329 18 9.33329C21.68 9.33329 24.6667 12.32 24.6667 16C24.6667 19.68 21.68 22.6666 18 22.6666Z" fill="#2A7AE4"/>
</g>
<defs>
<filter id="filter0_d_160_173" x="-2" y="0" width="40" height="40" filterUnits="userSpaceOnUse" color-interpolation-filters="sRGB">
<feFlood flood-opacity="0" result="BackgroundImageFix"/>
<feColorMatrix in="SourceAlpha" type="matrix" values="0 0 0 0 0 0 0 0 0 0 0 0 0 0 0 0 0 0 127 0" result="hardAlpha"/>
<feOffset dy="4"/>
<feGaussianBlur stdDeviation="2"/>
<feComposite in2="hardAlpha" operator="out"/>
<feColorMatrix type="matrix" values="0 0 0 0 0 0 0 0 0 0 0 0 0 0 0 0 0 0 0.25 0"/>
<feBlend mode="normal" in2="BackgroundImageFix" result="effect1_dropShadow_160_173"/>
<feBlend mode="normal" in="SourceGraphic" in2="effect1_dropShadow_160_173" result="shape"/>
</filter>
<clipPath id="clip0_160_173">
<rect width="32" height="32" fill="white" transform="translate(2)"/>
</clipPath>
</defs>
</svg>
