<?xml version="1.0" standalone="no"?>
<!DOCTYPE svg PUBLIC "-//W3C//DTD SVG 20010904//EN"
 "http://www.w3.org/TR/2001/REC-SVG-20010904/DTD/svg10.dtd">
<svg version="1.0" xmlns="http://www.w3.org/2000/svg"
 width="341.000000pt" height="148.000000pt" viewBox="0 0 341.000000 148.000000"
 preserveAspectRatio="xMidYMid meet">

<g transform="translate(0.000000,148.000000) scale(0.100000,-0.100000)"
fill="#000000" stroke="none">
<path d="M1372 1126 c3 -342 4 -356 24 -383 34 -45 79 -70 161 -88 88 -20 110
-29 134 -59 16 -20 18 -20 24 -3 10 25 48 42 138 62 82 18 127 43 161 88 20
27 21 41 24 383 l3 354 -106 0 c-87 0 -105 -3 -105 -15 0 -8 -4 -15 -10 -15
-5 0 -10 7 -10 15 0 12 -18 15 -105 15 -87 0 -105 -3 -105 -15 0 -8 -4 -15 -9
-15 -5 0 -11 7 -15 15 -4 12 -26 15 -106 15 l-101 0 3 -354z m188 319 c0 -10
10 -15 30 -15 20 0 30 5 30 15 0 12 16 15 85 15 69 0 85 -3 85 -15 0 -10 10
-15 30 -15 20 0 30 5 30 15 0 12 16 15 85 15 l86 0 -3 -349 c-3 -333 -4 -350
-23 -371 -30 -33 -81 -56 -168 -75 -42 -9 -87 -25 -99 -35 -22 -17 -23 -17
-45 0 -13 10 -58 26 -101 35 -91 20 -142 45 -171 81 -20 26 -21 37 -21 370 l0
344 85 0 c69 0 85 -3 85 -15z"/>
<path d="M1400 1380 l0 -70 305 0 305 0 0 70 0 70 -75 0 c-60 0 -75 -3 -75
-15 0 -11 -11 -15 -40 -15 -29 0 -40 4 -40 15 0 12 -15 15 -75 15 -60 0 -75
-3 -75 -15 0 -11 -11 -15 -40 -15 -29 0 -40 4 -40 15 0 12 -15 15 -75 15 l-75
0 0 -70z m64 -4 c4 9 9 15 12 12 2 -3 0 -18 -6 -34 -11 -28 -12 -28 -26 -10
-8 11 -14 27 -14 35 1 13 3 13 14 -2 13 -16 14 -16 20 -1z m91 4 l-20 -9 20
-1 20 -1 -20 -9 c-17 -7 -17 -9 -2 -9 27 -1 20 -21 -8 -21 -21 0 -25 5 -25 30
0 26 3 30 28 29 24 0 25 -1 7 -9z m105 -21 c0 -25 -3 -29 -13 -20 -10 8 -17 7
-25 -1 -9 -9 -12 -5 -12 20 0 27 4 32 25 32 21 0 25 -5 25 -31z m60 0 c0 -17
-4 -28 -10 -24 -5 3 -10 17 -10 31 0 13 5 24 10 24 6 0 10 -14 10 -31z m83 24
c-7 -2 -14 -17 -14 -31 l-2 -27 -4 25 c-3 14 -10 28 -17 32 -6 4 3 7 19 7 17
0 24 -3 18 -6z m85 -18 c7 -14 12 -27 12 -28 0 -1 -13 -2 -30 -2 -16 0 -30 1
-30 2 0 9 25 53 30 53 4 0 12 -11 18 -25z m77 15 c-17 -7 -17 -9 -2 -9 18 -1
23 -26 7 -36 -5 -3 -15 -3 -22 1 -8 5 -6 10 8 15 17 7 17 8 2 8 -10 1 -18 8
-18 16 0 9 9 15 23 14 21 0 21 -1 2 -9z"/>
<path d="M1630 1370 c0 -5 5 -10 10 -10 6 0 10 5 10 10 0 6 -4 10 -10 10 -5 0
-10 -4 -10 -10z"/>
<path d="M1402 1036 c3 -248 4 -265 23 -286 29 -32 69 -50 159 -72 45 -10 90
-25 101 -32 17 -11 24 -11 39 -1 9 7 58 23 107 35 96 24 146 51 166 90 9 18
13 96 13 278 l0 252 -305 0 -306 0 3 -264z m448 149 l1 -30 14 25 c8 14 15 34
15 45 1 18 1 19 11 3 7 -12 7 -30 0 -55 l-10 -38 34 40 35 40 -10 -34 c-5 -18
-17 -45 -26 -60 -12 -19 -6 -16 25 14 23 21 41 33 41 25 0 -7 -23 -36 -52 -63
-51 -50 -50 -52 5 -14 16 10 30 18 32 16 7 -8 -21 -37 -55 -58 -41 -24 -33
-28 11 -5 29 15 30 14 20 -4 -6 -11 -24 -25 -41 -32 -37 -15 -34 -25 4 -11 16
7 26 7 26 1 0 -12 -53 -40 -75 -40 -9 0 -14 -4 -10 -9 3 -5 -5 -17 -17 -25
-12 -9 -18 -16 -13 -16 6 0 1 -7 -9 -15 -18 -14 -18 -16 -3 -32 8 -10 21 -32
28 -48 10 -24 13 -26 16 -12 3 10 -3 27 -13 38 -15 17 -16 24 -6 39 7 11 12
26 12 34 0 20 26 40 35 26 4 -6 2 -17 -4 -24 -6 -7 -7 -16 -3 -20 4 -4 -1 -14
-11 -21 -17 -12 -17 -14 0 -50 l18 -37 -30 -24 c-25 -20 -41 -24 -97 -24 -41
0 -68 4 -68 11 0 5 -4 7 -10 4 -5 -3 -10 1 -10 11 0 13 7 15 38 10 25 -4 31
-3 17 3 -12 5 -27 16 -34 25 -17 20 -25 20 -46 0 -11 -12 -13 -20 -5 -29 9
-10 4 -15 -21 -20 -46 -10 -54 6 -20 39 25 24 28 32 20 53 -11 28 2 87 25 118
22 29 20 48 -4 42 -26 -7 -25 7 1 44 22 31 43 36 83 17 18 -8 27 -22 32 -47 9
-57 11 -58 29 -17 25 59 6 125 -52 184 -43 43 -44 44 -17 38 16 -4 40 -17 53
-29 l23 -22 -16 39 c-20 49 -20 49 5 36 11 -7 27 -26 34 -43 l14 -32 1 50 c1
48 1 49 15 25 8 -14 15 -38 15 -55z m-262 27 c14 11 15 10 9 -6 -7 -17 -6 -17
10 -5 15 12 16 12 10 -5 -6 -14 -4 -17 9 -12 14 5 15 4 4 -9 -10 -12 -9 -15 6
-15 16 0 17 -2 4 -10 -11 -7 -6 -10 20 -11 32 -1 33 -2 10 -8 -14 -4 -24 -13
-22 -19 1 -7 -3 -12 -9 -12 -5 0 -7 -5 -3 -12 5 -7 2 -9 -9 -5 -12 4 -14 2
-10 -10 4 -11 2 -14 -5 -9 -7 4 -12 3 -12 -3 0 -6 -7 -8 -15 -5 -10 4 -15 0
-16 -12 -1 -14 -3 -13 -9 6 -4 14 -8 19 -9 13 -1 -7 -6 -13 -12 -13 -5 0 -7 5
-3 12 5 8 2 9 -10 5 -13 -5 -17 -3 -13 7 4 11 1 13 -10 9 -11 -4 -14 -2 -9 5
4 7 2 12 -3 12 -6 0 -10 5 -8 12 1 6 -9 15 -23 19 -23 6 -22 7 10 8 26 1 31 4
20 11 -13 8 -12 10 4 10 16 0 17 2 5 17 -12 15 -12 16 3 10 13 -4 15 -2 11 11
-6 15 -5 16 12 2 17 -14 18 -13 12 4 -6 16 -5 17 8 6 13 -11 15 -9 16 11 l2
24 4 -23 c4 -20 7 -21 21 -10z"/>
<path d="M1547 1154 c-4 -4 -7 -16 -7 -26 0 -13 7 -18 26 -18 21 0 25 4 22 22
-3 23 -27 35 -41 22z"/>
<path d="M1964 390 c-44 -22 -64 -53 -64 -100 0 -48 37 -80 131 -110 71 -23
85 -30 87 -50 3 -15 -3 -29 -14 -37 -26 -19 -102 -16 -150 6 l-42 19 -11 -24
c-17 -37 -14 -42 31 -65 50 -25 158 -30 198 -9 69 35 95 93 66 147 -20 40 -48
57 -133 82 -71 21 -93 41 -73 66 19 23 61 26 117 10 30 -9 56 -15 57 -13 1 2
7 15 14 30 11 26 9 29 -19 43 -16 9 -58 18 -92 21 -50 4 -70 1 -103 -16z"/>
<path d="M2354 399 c-69 -20 -102 -97 -65 -155 19 -31 46 -45 150 -76 59 -17
74 -42 42 -69 -30 -25 -99 -25 -152 0 l-39 19 -16 -30 c-13 -25 -14 -32 -2
-40 56 -38 130 -52 198 -37 107 23 145 116 77 184 -20 20 -51 38 -78 44 -74
19 -109 39 -109 61 0 40 57 46 156 15 16 -5 23 0 33 21 11 25 10 30 -5 41 -41
30 -128 40 -190 22z"/>
<path d="M0 268 c0 -157 14 -201 75 -238 52 -32 138 -32 190 0 61 37 75 81 75
238 l0 132 -39 0 -39 0 -4 -136 c-3 -135 -3 -136 -31 -160 -36 -31 -78 -31
-114 0 -28 24 -28 25 -31 160 l-4 136 -39 0 -39 0 0 -132z"/>
<path d="M420 205 l0 -195 46 0 45 0 -3 125 c-2 69 -1 125 2 125 3 0 42 -57
88 -125 l82 -125 45 0 45 0 0 195 0 195 -40 0 -39 0 -3 -127 -3 -126 -84 126
-84 127 -48 0 -49 0 0 -195z"/>
<path d="M860 205 l0 -195 40 0 40 0 0 195 0 195 -40 0 -40 0 0 -195z"/>
<path d="M1030 205 l0 -195 40 0 40 0 0 125 c0 69 3 125 8 125 4 0 44 -57 90
-125 l82 -125 45 0 45 0 0 195 0 195 -40 0 -39 0 -3 -127 -3 -128 -85 127 -85
127 -47 1 -48 0 0 -195z"/>
<path d="M1515 213 c-44 -102 -81 -190 -83 -194 -2 -5 16 -9 40 -9 39 0 45 3
55 30 l11 30 105 0 105 0 11 -30 c9 -27 14 -30 51 -30 l40 0 -14 33 c-7 17
-44 105 -82 195 l-68 162 -46 0 -45 0 -80 -187z m195 -65 c0 -4 -31 -8 -69 -8
l-70 0 26 63 c14 34 30 73 35 87 9 23 12 19 44 -54 19 -44 34 -83 34 -88z"/>
<path d="M2740 303 c-24 -54 -62 -142 -85 -196 l-43 -97 43 0 c38 0 44 3 55
30 l12 30 105 0 104 0 10 -30 c10 -27 16 -30 51 -30 47 0 52 -20 -46 210 l-74
175 -45 3 -44 3 -43 -98z m126 -81 l32 -77 -65 -3 c-36 -2 -67 -1 -69 1 -2 2
10 41 28 85 17 45 34 79 37 77 3 -3 19 -40 37 -83z"/>
<path d="M3070 264 c0 -157 10 -191 72 -232 52 -34 140 -35 194 -2 60 37 74
82 74 238 l0 132 -39 0 -39 0 -4 -136 c-3 -135 -3 -136 -31 -160 -36 -31 -78
-31 -114 0 -28 24 -28 25 -31 160 l-4 136 -39 0 -39 0 0 -136z"/>
</g>
</svg>
