<svg width="40" height="38" viewBox="0 0 40 38" fill="none" xmlns="http://www.w3.org/2000/svg">
<g filter="url(#filter0_d_160_138)">
<path d="M30.125 10.125C33.5 11.25 36 13.125 36 15C36 17 33.375 18.9375 29.75 20.125C29.5625 20.1875 29.375 20.25 29.1875 20.3125C29.25 20.5625 29.3125 20.875 29.375 21.125C30.0625 24.75 29.5 27.6875 27.8125 28.6875C26.1875 29.625 23.5625 28.6875 20.875 26.375C20.5625 26.125 20.3125 25.875 20 25.625C19.8125 25.8125 19.5625 26 19.375 26.1875C16.625 28.625 13.75 29.625 12.0625 28.625C10.4375 27.6875 9.9375 24.9375 10.5625 21.5C10.6875 21.125 10.75 20.75 10.8125 20.375C10.5625 20.3125 10.25 20.1875 10 20.125C6.5 18.9375 4 16.9375 4 15C4 13.125 6.375 11.3125 9.6875 10.125C10.0625 10 10.4375 9.875 10.875 9.75C10.75 9.4375 10.6875 9.0625 10.625 8.75C9.9375 5.1875 10.4375 2.375 12.0625 1.4375C13.75 0.4375 16.625 1.5 19.5 4C19.625 4.1875 19.8125 4.3125 20 4.5C20.25 4.25 20.5 4 20.75 3.8125C23.5 1.4375 26.1875 0.4375 27.8125 1.375C29.5 2.375 30 5.375 29.25 9.0625C29.1875 9.3125 29.125 9.5625 29.125 9.8125C29.4375 9.875 29.75 10 30.125 10.125ZM21.625 4.8125C21.375 5 21.1875 5.25 20.9375 5.4375C21.875 6.5 22.75 7.625 23.5625 8.8125C25 8.9375 26.375 9.125 27.8125 9.4375C27.875 9.25 27.875 9.0625 27.9375 8.8125C28.625 5.625 28.1875 3.125 27.125 2.5625C26.125 2 24 2.75 21.625 4.8125ZM14.4375 18.25C14.125 17.6875 13.8125 17.1875 13.5 16.625C13.125 17.5625 12.8125 18.5 12.5 19.375C13.4375 19.625 14.4375 19.75 15.4375 19.875C15.0625 19.3125 14.75 18.8125 14.4375 18.25ZM12.5 10.75C12.8125 11.625 13.125 12.5 13.5 13.4375C13.8125 12.875 14.125 12.375 14.4375 11.8125C14.75 11.3125 15.0625 10.75 15.375 10.25C14.375 10.375 13.4375 10.5 12.5 10.75ZM14.25 15.0625C14.6875 15.875 15.125 16.75 15.5625 17.5625C16.0625 18.375 16.5625 19.1875 17.125 20C18.0625 20.0625 19 20.125 20 20.125C20.9375 20.125 21.9375 20.0625 22.875 20C23.375 19.1875 23.875 18.375 24.375 17.5625C24.875 16.75 25.3125 15.875 25.6875 15C25.3125 14.125 24.8125 13.3125 24.375 12.5C23.875 11.6875 23.375 10.875 22.8125 10.0625C21.9375 10 20.9375 9.9375 20 9.9375C19 9.9375 18.0625 10 17.125 10.0625C16.5625 10.875 16.0625 11.6875 15.5625 12.5C15.125 13.3125 14.625 14.1875 14.25 15.0625ZM25.5 18.25C25.1875 18.75 24.875 19.3125 24.5625 19.8125C25.5625 19.75 26.5 19.5625 27.5 19.3125C27.1875 18.375 26.8125 17.5 26.4375 16.5625C26.125 17.125 25.875 17.6875 25.5 18.25ZM26.4375 13.4375C26.8125 12.5625 27.125 11.6875 27.4375 10.75C26.5625 10.5625 25.5625 10.375 24.5625 10.25C24.875 10.75 25.1875 11.3125 25.5 11.8125C25.8125 12.375 26.125 12.875 26.4375 13.4375ZM20 6.4375C19.375 7.125 18.75 7.875 18.125 8.6875C19.375 8.625 20.625 8.625 21.8125 8.6875C21.25 7.875 20.625 7.125 20 6.4375ZM12.75 2.5625C11.75 3.1875 11.375 5.4375 11.9375 8.4375C12 8.8125 12.0625 9.125 12.1875 9.4375C13.5625 9.125 14.9375 8.9375 16.375 8.8125C17.1875 7.625 18.0625 6.5 19.0625 5.4375C18.875 5.3125 18.75 5.1875 18.5625 5C16.125 2.875 13.8125 2 12.75 2.5625ZM11.1875 19.0625C11.625 17.6875 12.125 16.3125 12.75 15.0625C12.1875 13.75 11.625 12.4375 11.25 11.0625C10.875 11.1875 10.5 11.25 10.125 11.375C7.3125 12.375 5.3125 13.875 5.3125 15C5.4375 15.75 5.875 16.4375 6.5 16.875C7.5625 17.75 9.125 18.375 10.4375 18.8125C10.6875 18.9375 10.9375 19 11.1875 19.0625ZM18.5 25.1875C18.6875 25 18.875 24.8125 19.0625 24.625C18.125 23.5625 17.1875 22.4375 16.375 21.3125C14.9375 21.1875 13.5625 21 12.125 20.6875C12.0625 21 12 21.375 11.9375 21.75C11.375 24.6875 11.75 26.875 12.75 27.5C13.5 27.75 14.25 27.75 14.9375 27.375C16.25 26.875 17.4375 26.125 18.5 25.1875ZM20 23.6875C20.6875 22.9375 21.3125 22.1875 21.875 21.375C21.25 21.4375 20.625 21.4375 20 21.4375C19.375 21.4375 18.75 21.4375 18.125 21.375C18.75 22.25 19.375 23 20 23.6875ZM28.1875 25.5625C28.375 24.1875 28.3125 22.75 28.0625 21.375C28 21.125 27.9375 20.875 27.875 20.625C26.4375 20.9375 25.0625 21.1875 23.625 21.3125C22.8125 22.5 21.9375 23.5625 20.9375 24.625C21.25 24.875 21.5 25.125 21.75 25.375C24.0625 27.3125 26.1875 28.0625 27.1875 27.5C27.75 27 28.125 26.3125 28.1875 25.5625ZM29.3125 18.8125C32.4375 17.8125 34.625 16.1875 34.625 15C34.625 13.875 32.5625 12.375 29.6875 11.375C29.375 11.25 29.0625 11.1875 28.75 11.0625C28.3125 12.4375 27.8125 13.75 27.1875 15C27.8125 16.3125 28.375 17.625 28.8125 19C29 18.9375 29.125 18.875 29.3125 18.8125ZM20 17.875C18.375 17.875 17.125 16.625 17.125 15C17.125 13.4375 18.375 12.1875 20 12.1875C21.5625 12.1875 22.8125 13.4375 22.8125 15C22.8125 16.625 21.5625 17.875 20 17.875Z" fill="#2A7AE4"/>
</g>
<defs>
<filter id="filter0_d_160_138" x="0" y="0.4375" width="40" height="37.1875" filterUnits="userSpaceOnUse" color-interpolation-filters="sRGB">
<feFlood flood-opacity="0" result="BackgroundImageFix"/>
<feColorMatrix in="SourceAlpha" type="matrix" values="0 0 0 0 0 0 0 0 0 0 0 0 0 0 0 0 0 0 127 0" result="hardAlpha"/>
<feOffset dy="4"/>
<feGaussianBlur stdDeviation="2"/>
<feComposite in2="hardAlpha" operator="out"/>
<feColorMatrix type="matrix" values="0 0 0 0 0 0 0 0 0 0 0 0 0 0 0 0 0 0 0.25 0"/>
<feBlend mode="normal" in2="BackgroundImageFix" result="effect1_dropShadow_160_138"/>
<feBlend mode="normal" in="SourceGraphic" in2="effect1_dropShadow_160_138" result="shape"/>
</filter>
</defs>
</svg>
